<?xml version="1.0" encoding="UTF-8" standalone="no"?>
<!-- Created with Inkscape (http://www.inkscape.org/) -->

<svg
   xmlns:dc="http://purl.org/dc/elements/1.1/"
   xmlns:cc="http://creativecommons.org/ns#"
   xmlns:rdf="http://www.w3.org/1999/02/22-rdf-syntax-ns#"
   xmlns:svg="http://www.w3.org/2000/svg"
   xmlns="http://www.w3.org/2000/svg"
   xmlns:sodipodi="http://sodipodi.sourceforge.net/DTD/sodipodi-0.dtd"
   xmlns:inkscape="http://www.inkscape.org/namespaces/inkscape"
   version="1.1"
   id="svg2"
   xml:space="preserve"
   width="861.73224"
   height="309.92126"
   viewBox="0 0 861.73224 309.92126"
   sodipodi:docname="linear bearing holder.svg"
   inkscape:version="0.92.4 (5da689c313, 2019-01-14)"><metadata
     id="metadata8"><rdf:RDF><cc:Work
         rdf:about=""><dc:format>image/svg+xml</dc:format><dc:type
           rdf:resource="http://purl.org/dc/dcmitype/StillImage" /><dc:title></dc:title></cc:Work></rdf:RDF></metadata><defs
     id="defs6" /><sodipodi:namedview
     pagecolor="#ffffff"
     bordercolor="#666666"
     borderopacity="1"
     objecttolerance="10"
     gridtolerance="10"
     guidetolerance="10"
     inkscape:pageopacity="0"
     inkscape:pageshadow="2"
     inkscape:window-width="1440"
     inkscape:window-height="838"
     id="namedview4"
     showgrid="false"
     showguides="true"
     inkscape:guide-bbox="true"
     inkscape:zoom="2.0678222"
     inkscape:cx="407.8288"
     inkscape:cy="258.44785"
     inkscape:window-x="-8"
     inkscape:window-y="-8"
     inkscape:window-maximized="1"
     inkscape:current-layer="g14"><sodipodi:guide
       position="357.34531,296.47692"
       orientation="1,0"
       id="guide857"
       inkscape:locked="false" /><sodipodi:guide
       position="69.417319,308.78738"
       orientation="1,0"
       id="guide859"
       inkscape:locked="false" /><sodipodi:guide
       position="237.44788,289.19313"
       orientation="0,1"
       id="guide887"
       inkscape:locked="false" /><sodipodi:guide
       position="210.412,255.10926"
       orientation="0,1"
       id="guide889"
       inkscape:locked="false" /><sodipodi:guide
       position="193.396,272.12392"
       orientation="1,0"
       id="guide891"
       inkscape:locked="false" /><sodipodi:guide
       position="227.34399,273.79059"
       orientation="1,0"
       id="guide893"
       inkscape:locked="false" /></sodipodi:namedview><g
     id="g10"
     inkscape:groupmode="layer"
     inkscape:label="brdg"
     transform="matrix(1.3333333,0,0,1.3333333,0,3.7480316e-6)"><g
       id="g12"><g
         id="g14"><path
           style="fill:none;stroke:#0000ff;stroke-width:0.107136;stroke-linecap:butt;stroke-linejoin:miter;stroke-miterlimit:4;stroke-dasharray:none;stroke-opacity:1"
           d="m 149.555,33.051002 0.05,1.047 0.184,1.238 0.305,1.215 0.422,1.179 0.535,1.133 0.644,1.075 0.746,1.003 0.84,0.93 0.93,0.844 1.008,0.746 1.074,0.641 1.129,0.535 0.836,0.301 0.344,0.125 1.214,0.3 1.243,0.184 1.25,0.062 1.25,-0.062 1.238,-0.184 1.215,-0.3 1.179,-0.426 1.129,-0.535 1.078,-0.641 0.473,-0.352 0.531,-0.394 0.93,-0.844 0.84,-0.93 0.75,-1.003 0.641,-1.075 0.535,-1.133 0.425,-1.179 0.301,-1.215 0.184,-1.238 0.055,-1.047 0.007,-0.203 -0.062,-1.25 -0.184,-1.239 -0.301,-1.218 -0.425,-1.18 -0.535,-1.129 -0.641,-1.074 -0.75,-1.008 -0.84,-0.93 -0.93,-0.84 -0.531,-0.394 -0.473,-0.352 -1.078,-0.644 -1.129,-0.535 -1.179,-0.422 -1.215,-0.305 -1.238,-0.183 -1.25,-0.059 -1.25,0.059 -1.243,0.183 -1.214,0.305 -0.344,0.121 -0.836,0.301 -1.129,0.535 -1.074,0.644 -1.008,0.746 -0.93,0.84 -0.84,0.93 -0.746,1.008 -0.644,1.074 -0.535,1.129 -0.422,1.18 -0.305,1.218 -0.184,1.239 -0.058,1.25 0.008,0.203"
           id="path843"
           inkscape:connector-curvature="0" /><path
           style="fill:none;stroke:#0000ff;stroke-width:0.107136;stroke-linecap:butt;stroke-linejoin:miter;stroke-miterlimit:4;stroke-dasharray:none;stroke-opacity:1"
           d="m 30.816,44.27 1.008,0.476 1.047,0.375 1.082,0.274 1.102,0.16 1.109,0.054 1.113,-0.054 1.102,-0.16 1.082,-0.274 1.047,-0.375 1.008,-0.476 0.636,-0.383 0.317,-0.188 0.894,-0.664 0.825,-0.75 0.75,-0.824 0.66,-0.895 0.574,-0.953 0.476,-1.008 0.375,-1.046 0.27,-1.082 0.164,-1.102 0.055,-1.109 -0.055,-1.114 -0.016,-0.101 -0.148,-1 -0.27,-1.082 -0.375,-1.047 -0.476,-1.008 -0.574,-0.953 -0.66,-0.895 -0.75,-0.824 -0.825,-0.75 -0.894,-0.664 -0.317,-0.187 -0.636,-0.383 -1.008,-0.477 -1.047,-0.375 -1.082,-0.269 -1.102,-0.164 -1.113,-0.055 -1.109,0.055 -1.102,0.164 -1.082,0.269 -1.047,0.375 -1.008,0.477 -0.273,0.164 -0.684,0.406 -0.89,0.664 -0.824,0.75 -0.75,0.824 -0.665,0.895 -0.57,0.953 -0.476,1.008 -0.375,1.047 -0.274,1.082 -0.144,1 -0.016,0.101 -0.055,1.114 0.055,1.109 0.16,1.102 0.274,1.082 0.375,1.046 0.476,1.008 0.57,0.953 0.665,0.895 0.75,0.824 0.824,0.75 0.89,0.664 0.684,0.406 0.273,0.165"
           id="path841"
           inkscape:connector-curvature="0" /><path
           style="fill:none;stroke:#0000ff;stroke-width:0.107136;stroke-linecap:butt;stroke-linejoin:miter;stroke-miterlimit:4;stroke-dasharray:none;stroke-opacity:1"
           d="m 298.984,24.258 -0.996,-0.473 -0.011,-0.004 -1.051,-0.375 -1.078,-0.269 -1.102,-0.164 -1.113,-0.055 -1.11,0.055 -1.101,0.164 -1.082,0.269 -1.047,0.375 -1.008,0.477 -0.957,0.57 -0.89,0.664 -0.059,0.055 -0.766,0.695 -0.75,0.824 -0.664,0.895 -0.57,0.953 -0.477,1.008 -0.375,1.047 -0.273,1.082 -0.145,1 -0.015,0.101 -0.055,1.114 0.055,1.109 0.16,1.102 0.273,1.082 0.375,1.046 0.477,1.008 0.57,0.953 0.664,0.895 0.75,0.824 0.766,0.695 0.059,0.055 0.89,0.664 0.957,0.571 1.008,0.476 1.047,0.375 1.082,0.274 1.101,0.16 1.11,0.054 1.113,-0.054 1.102,-0.16 1.078,-0.274 1.051,-0.375 0.011,-0.004 0.996,-0.472 0.954,-0.571 0.894,-0.664 0.824,-0.75 0.746,-0.824 0.664,-0.895 0.575,-0.953 0.476,-1.008 0.375,-1.046 0.27,-1.082 0.164,-1.102 0.054,-1.109 -0.054,-1.114 -0.016,-0.101 -0.148,-1 -0.27,-1.082 -0.375,-1.047 -0.476,-1.008 -0.575,-0.953 -0.664,-0.895 -0.746,-0.824 -0.824,-0.75 -0.894,-0.664 -0.954,-0.57"
           id="path839"
           inkscape:connector-curvature="0" /><path
           id="path849"
           d="m 303.57923,15.663279 -1.85156,-0.879307 -0.0204,-0.0074 -1.95381,-0.697125 -2.004,-0.500071 -2.04863,-0.304876 -2.06905,-0.102245 -2.06349,0.102245 -2.04676,0.304876 -2.01144,0.500071 -1.94637,0.697125 -1.87388,0.886742 -1.77905,1.05963 -1.65452,1.234377 -0.10967,0.102245 -1.424,1.292003 -1.39426,1.531816 -1.23437,1.663805 -1.05963,1.771627 -0.88673,1.873872 -0.69714,1.946373 -0.50751,2.011438 -0.26955,1.858999 -0.0279,0.18776 -0.10224,2.070925 0.10224,2.061631 0.29745,2.048619 0.5075,2.011437 0.69714,1.944514 0.88673,1.873871 1.05963,1.771627 1.23438,1.663805 1.39425,1.531816 1.424,1.292005 0.10967,0.102245 1.65452,1.234375 1.77905,1.061489 1.87389,0.884884 1.94636,0.697125 2.01145,0.509366 2.04676,0.297439 2.06347,0.100388 2.06907,-0.100388 2.04862,-0.297439 2.004,-0.509366 1.95381,-0.697125 0.0204,-0.0074 1.85157,-0.877447 1.77348,-1.061489 1.66194,-1.234376 1.53182,-1.394249 1.38683,-1.531817 1.23436,-1.663805 1.06893,-1.771627 0.88489,-1.873871 0.69712,-1.944514 0.50193,-2.011438 0.30487,-2.048618 0.10039,-2.06163 -0.10039,-2.070926 -0.0297,-0.18776 -0.27512,-1.858999 -0.50193,-2.011438 -0.69712,-1.946373 -0.88489,-1.873872 -1.06893,-1.771626 -1.23436,-1.663806 -1.38683,-1.531816 -1.53182,-1.394248 -1.66194,-1.234377 -1.77348,-1.05963"
           style="fill:none;stroke:#0000ff;stroke-width:0.10713601;stroke-linecap:butt;stroke-linejoin:miter;stroke-miterlimit:4;stroke-dasharray:none;stroke-opacity:1"
           inkscape:connector-curvature="0" /><path
           inkscape:connector-curvature="0"
           style="fill:none;stroke:#0000ff;stroke-width:0.10713601;stroke-linecap:butt;stroke-linejoin:miter;stroke-miterlimit:4;stroke-dasharray:none;stroke-opacity:1"
           d="m 25.641773,15.663279 1.85156,-0.879307 0.0204,-0.0074 1.95381,-0.697125 2.004,-0.500071 2.04863,-0.304876 2.06905,-0.102245 2.06349,0.102245 2.04676,0.304876 2.01144,0.500071 1.94637,0.697125 1.87388,0.886742 1.77905,1.05963 1.65452,1.234377 0.10967,0.102245 1.424,1.292003 1.39426,1.531816 1.23437,1.663805 1.05963,1.771627 0.88673,1.873872 0.69714,1.946373 0.50751,2.011438 0.26955,1.858999 0.0279,0.18776 0.10224,2.070925 -0.10224,2.061631 -0.29745,2.048619 -0.5075,2.011437 -0.69714,1.944514 -0.88673,1.873871 -1.05963,1.771627 -1.23438,1.663805 -1.39425,1.531816 -1.424,1.292005 -0.10967,0.102245 -1.65452,1.234375 -1.77905,1.061489 -1.87389,0.884884 -1.94636,0.697125 -2.01145,0.509366 -2.04676,0.297439 -2.06347,0.100388 -2.06907,-0.100388 -2.04862,-0.297439 -2.004,-0.509366 -1.95381,-0.697125 -0.0204,-0.0074 -1.85157,-0.877447 -1.77348,-1.061489 -1.66194,-1.234376 -1.53182,-1.394249 -1.38683,-1.531817 -1.23436,-1.663805 -1.06893,-1.771627 -0.88489,-1.873871 -0.69712,-1.944514 -0.50193,-2.011438 -0.30487,-2.048618 -0.10039,-2.06163 0.10039,-2.070926 0.0297,-0.18776 0.27512,-1.858999 0.50193,-2.011438 0.69712,-1.946373 0.88489,-1.873872 1.06893,-1.771626 1.23436,-1.663806 1.38683,-1.531816 1.53182,-1.394248 1.66194,-1.234377 1.77348,-1.05963"
           id="path851" /><path
           sodipodi:type="star"
           style="opacity:1;fill:none;fill-opacity:1;stroke:#0000ff;stroke-width:0.04526334;stroke-linecap:round;stroke-linejoin:round;stroke-miterlimit:4;stroke-dasharray:none;stroke-dashoffset:0;stroke-opacity:1"
           id="path885"
           sodipodi:sides="6"
           sodipodi:cx="147.98178"
           sodipodi:cy="40.209721"
           sodipodi:r1="13.142574"
           sodipodi:r2="11.381803"
           sodipodi:arg1="1.0471976"
           sodipodi:arg2="1.5707963"
           inkscape:flatsided="true"
           inkscape:rounded="0"
           inkscape:randomized="0"
           d="m 154.55307,51.591524 -13.14258,0 -6.57128,-11.381804 6.57128,-11.381803 13.14258,1e-6 6.57129,11.381803 z"
           transform="matrix(1.5574365,0,0,1.5576671,-68.163735,-29.785854)" /><path
           id="path901"
           d="m 19.993636,5.09918 2.903162,-1.378713 0.03199,-0.0116 3.063485,-1.093062 3.142181,-0.784088 3.212159,-0.478032 3.244176,-0.160315 3.235459,0.160315 3.209226,0.478032 3.153846,0.784088 3.05182,1.093062 2.938159,1.390371 2.789469,1.661451 2.594212,1.935447 0.171958,0.160316 2.232767,2.025802 2.186136,2.401818 1.935436,2.60877 1.661452,2.77783 1.390352,2.938146 1.093084,3.051825 0.795753,3.153843 0.422642,2.914826 0.04375,0.294399 0.160307,3.247116 -0.160307,3.232544 -0.466388,3.212141 -0.795737,3.153842 -1.093084,3.048909 -1.390352,2.938145 -1.661452,2.77783 -1.935452,2.608771 -2.18612,2.401818 -2.232768,2.025805 -0.171957,0.160315 -2.594212,1.935444 -2.78947,1.664366 -2.938174,1.387458 -3.051804,1.093061 -3.153862,0.798662 -3.209226,0.466371 -3.235428,0.157404 -3.244207,-0.157404 -3.212143,-0.466371 -3.142181,-0.798662 -3.063485,-1.093061 -0.03199,-0.0116 -2.903182,-1.3758 L 17.2129,61.766446 14.607054,59.831001 12.20523,57.644882 10.030744,55.243062 8.0953231,52.634292 6.4192895,49.856461 5.0318223,46.918317 3.9387699,43.869407 3.1517665,40.715564 2.6737443,37.503424 2.5163367,34.270882 2.6737443,31.023764 2.7203123,30.729365 3.1516879,27.814539 3.9386913,24.660696 5.0317439,21.608872 6.4192111,18.670726 8.0952447,15.892897 10.030665,13.284125 12.205151,10.882307 14.606975,8.69619 17.212822,6.760743 19.993558,5.099291"
           style="fill:none;stroke:#0000ff;stroke-width:0.10713601;stroke-linecap:butt;stroke-linejoin:miter;stroke-miterlimit:4;stroke-dasharray:none;stroke-opacity:1"
           inkscape:connector-curvature="0" /><path
           style="fill:none;stroke:#000000;stroke-width:0.0705;stroke-linecap:butt;stroke-linejoin:miter;stroke-miterlimit:4;stroke-dasharray:none;stroke-opacity:1"
           d="m 56.562991,7.273916 c 0,0 -8.090636,-6.005868 -20.972202,-6.080549 C 22.709223,1.118685 2.5844168,10.487198 2.5163367,34.270882 2.4482566,58.054567 23.082099,67.508241 35.590824,67.33371 48.099549,67.159179 56.563,59.830944 56.563,59.830944 l 216.044,5.7e-5 c 0,0 7.52747,7.664778 20.97797,7.692741 13.4505,0.02796 33.67277,-10.712869 32.83091,-35.115953 C 325.57402,8.004705 303.06614,1.289464 293.5908,1.193367 c -9.47534,-0.0961 -21.08181,6.080549 -21.08181,6.080549 z"
           id="path903"
           inkscape:connector-curvature="0"
           sodipodi:nodetypes="cssscczzzcc" /><path
           inkscape:connector-curvature="0"
           id="path907"
           d="m 149.555,102.051 0.05,1.047 0.184,1.238 0.305,1.215 0.422,1.179 0.535,1.133 0.644,1.075 0.746,1.003 0.84,0.93 0.93,0.844 1.008,0.746 1.074,0.641 1.129,0.535 0.836,0.301 0.344,0.125 1.214,0.3 1.243,0.184 1.25,0.062 1.25,-0.062 1.238,-0.184 1.215,-0.3 1.179,-0.426 1.129,-0.535 1.078,-0.641 0.473,-0.352 0.531,-0.394 0.93,-0.844 0.84,-0.93 0.75,-1.003 0.641,-1.075 0.535,-1.133 0.425,-1.179 0.301,-1.215 0.184,-1.238 0.055,-1.047 0.007,-0.203 -0.062,-1.25 -0.184,-1.238998 -0.301,-1.218 -0.425,-1.18 -0.535,-1.129 -0.641,-1.074 -0.75,-1.008 -0.84,-0.93 -0.93,-0.84 -0.531,-0.394 -0.473,-0.352 -1.078,-0.644 -1.129,-0.535 -1.179,-0.422 -1.215,-0.305 -1.238,-0.183 -1.25,-0.059 -1.25,0.059 -1.243,0.183 -1.214,0.305 -0.344,0.121 -0.836,0.301 -1.129,0.535 -1.074,0.644 -1.008,0.746 -0.93,0.84 -0.84,0.93 -0.746,1.008 -0.644,1.074 -0.535,1.129 -0.422,1.18 -0.305,1.218 -0.184,1.238998 -0.058,1.25 0.008,0.203"
           style="fill:none;stroke:#0000ff;stroke-width:0.107136;stroke-linecap:butt;stroke-linejoin:miter;stroke-miterlimit:4;stroke-dasharray:none;stroke-opacity:1" /><path
           inkscape:connector-curvature="0"
           id="path909"
           d="m 30.816,113.27 1.008,0.476 1.047,0.375 1.082,0.274 1.102,0.16 1.109,0.054 1.113,-0.054 1.102,-0.16 1.082,-0.274 1.047,-0.375 1.008,-0.476 0.636,-0.383 0.317,-0.188 0.894,-0.664 0.825,-0.75 0.75,-0.824 0.66,-0.895 0.574,-0.953 0.476,-1.008 0.375,-1.046 0.27,-1.082 0.164,-1.102 0.055,-1.109 -0.055,-1.114 -0.016,-0.101 -0.148,-1 -0.27,-1.082 -0.375,-1.047 -0.476,-1.008 -0.574,-0.953 -0.66,-0.895 -0.75,-0.824 -0.825,-0.75 -0.894,-0.664 -0.317,-0.187 -0.636,-0.383 -1.008,-0.477 -1.047,-0.375 -1.082,-0.269 -1.102,-0.164 -1.113,-0.055 -1.109,0.055 -1.102,0.164 -1.082,0.269 -1.047,0.375 -1.008,0.477 -0.273,0.164 -0.684,0.406 -0.89,0.664 -0.824,0.75 -0.75,0.824 -0.665,0.895 -0.57,0.953 -0.476,1.008 -0.375,1.047 -0.274,1.082 -0.144,1 -0.016,0.101 -0.055,1.114 0.055,1.109 0.16,1.102 0.274,1.082 0.375,1.046 0.476,1.008 0.57,0.953 0.665,0.895 0.75,0.824 0.824,0.75 0.89,0.664 0.684,0.406 0.273,0.165"
           style="fill:none;stroke:#0000ff;stroke-width:0.107136;stroke-linecap:butt;stroke-linejoin:miter;stroke-miterlimit:4;stroke-dasharray:none;stroke-opacity:1" /><path
           inkscape:connector-curvature="0"
           id="path911"
           d="m 298.984,93.258 -0.996,-0.473 -0.011,-0.004 -1.051,-0.375 -1.078,-0.269 -1.102,-0.164 -1.113,-0.055 -1.11,0.055 -1.101,0.164 -1.082,0.269 -1.047,0.375 -1.008,0.477 -0.957,0.57 -0.89,0.664 -0.059,0.055 -0.766,0.695 -0.75,0.824 -0.664,0.895 -0.57,0.953 -0.477,1.008 -0.375,1.047 -0.273,1.082 -0.145,1 -0.015,0.101 -0.055,1.114 0.055,1.109 0.16,1.102 0.273,1.082 0.375,1.046 0.477,1.008 0.57,0.953 0.664,0.895 0.75,0.824 0.766,0.695 0.059,0.055 0.89,0.664 0.957,0.571 1.008,0.476 1.047,0.375 1.082,0.274 1.101,0.16 1.11,0.054 1.113,-0.054 1.102,-0.16 1.078,-0.274 1.051,-0.375 0.011,-0.004 0.996,-0.472 0.954,-0.571 0.894,-0.664 0.824,-0.75 0.746,-0.824 0.664,-0.895 0.575,-0.953 0.476,-1.008 0.375,-1.046 0.27,-1.082 0.164,-1.102 0.054,-1.109 -0.054,-1.114 -0.016,-0.101 -0.148,-1 -0.27,-1.082 -0.375,-1.047 -0.476,-1.008 -0.575,-0.953 -0.664,-0.895 -0.746,-0.824 -0.824,-0.75 -0.894,-0.664 -0.954,-0.57"
           style="fill:none;stroke:#0000ff;stroke-width:0.107136;stroke-linecap:butt;stroke-linejoin:miter;stroke-miterlimit:4;stroke-dasharray:none;stroke-opacity:1" /><path
           inkscape:connector-curvature="0"
           style="fill:none;stroke:#0000ff;stroke-width:0.10713601;stroke-linecap:butt;stroke-linejoin:miter;stroke-miterlimit:4;stroke-dasharray:none;stroke-opacity:1"
           d="m 303.57923,84.663279 -1.85156,-0.879307 -0.0204,-0.0074 -1.95381,-0.697125 -2.004,-0.500071 -2.04863,-0.304876 -2.06905,-0.102245 -2.06349,0.102245 -2.04676,0.304876 -2.01144,0.500071 -1.94637,0.697125 -1.87388,0.886742 -1.77905,1.05963 -1.65452,1.234377 -0.10967,0.102245 -1.424,1.292003 -1.39426,1.531816 -1.23437,1.663805 -1.05963,1.771627 -0.88673,1.873872 -0.69714,1.946373 -0.50751,2.011438 -0.26955,1.859 -0.0279,0.18776 -0.10224,2.07092 0.10224,2.06164 0.29745,2.04861 0.5075,2.01144 0.69714,1.94452 0.88673,1.87387 1.05963,1.77162 1.23438,1.66381 1.39425,1.53181 1.424,1.29201 0.10967,0.10224 1.65452,1.23438 1.77905,1.06149 1.87389,0.88488 1.94636,0.69713 2.01145,0.50936 2.04676,0.29744 2.06347,0.10039 2.06907,-0.10039 2.04862,-0.29744 2.004,-0.50936 1.95381,-0.69713 0.0204,-0.007 1.85157,-0.87744 1.77348,-1.06149 1.66194,-1.23438 1.53182,-1.39425 1.38683,-1.53182 1.23436,-1.6638 1.06893,-1.77163 0.88489,-1.87387 0.69712,-1.94451 0.50193,-2.01144 0.30487,-2.04862 0.10039,-2.06163 -0.10039,-2.07092 -0.0297,-0.18776 -0.27512,-1.859004 -0.50193,-2.011438 -0.69712,-1.946373 -0.88489,-1.873872 -1.06893,-1.771626 -1.23436,-1.663806 -1.38683,-1.531816 -1.53182,-1.394248 -1.66194,-1.234377 -1.77348,-1.05963"
           id="path913" /><path
           id="path915"
           d="m 25.641773,84.663279 1.85156,-0.879307 0.0204,-0.0074 1.95381,-0.697125 2.004,-0.500071 2.04863,-0.304876 2.06905,-0.102245 2.06349,0.102245 2.04676,0.304876 2.01144,0.500071 1.94637,0.697125 1.87388,0.886742 1.77905,1.05963 1.65452,1.234377 0.10967,0.102245 1.424,1.292003 1.39426,1.531816 1.23437,1.663805 1.05963,1.771627 0.88673,1.873872 0.69714,1.946373 0.50751,2.011438 0.26955,1.859 0.0279,0.18776 0.10224,2.07092 -0.10224,2.06164 -0.29745,2.04861 -0.5075,2.01144 -0.69714,1.94452 -0.88673,1.87387 -1.05963,1.77162 -1.23438,1.66381 -1.39425,1.53181 -1.424,1.29201 -0.10967,0.10224 -1.65452,1.23438 -1.77905,1.06149 -1.87389,0.88488 -1.94636,0.69713 -2.01145,0.50936 -2.04676,0.29744 -2.06347,0.10039 -2.06907,-0.10039 -2.04862,-0.29744 -2.004,-0.50936 -1.95381,-0.69713 -0.0204,-0.007 -1.85157,-0.87744 -1.77348,-1.06149 -1.66194,-1.23438 -1.53182,-1.39425 -1.38683,-1.53182 -1.23436,-1.6638 -1.06893,-1.77163 -0.88489,-1.87387 -0.69712,-1.94451 -0.50193,-2.01144 -0.30487,-2.04862 -0.10039,-2.06163 0.10039,-2.07092 0.0297,-0.18776 0.27512,-1.859004 0.50193,-2.011438 0.69712,-1.946373 0.88489,-1.873872 1.06893,-1.771626 1.23436,-1.663806 1.38683,-1.531816 1.53182,-1.394248 1.66194,-1.234377 1.77348,-1.05963"
           style="fill:none;stroke:#0000ff;stroke-width:0.10713601;stroke-linecap:butt;stroke-linejoin:miter;stroke-miterlimit:4;stroke-dasharray:none;stroke-opacity:1"
           inkscape:connector-curvature="0" /><path
           transform="matrix(1.5574365,0,0,1.5576671,-68.163735,39.214147)"
           d="m 154.55307,51.591524 -13.14258,0 -6.57128,-11.381804 6.57128,-11.381803 13.14258,1e-6 6.57129,11.381803 z"
           inkscape:randomized="0"
           inkscape:rounded="0"
           inkscape:flatsided="true"
           sodipodi:arg2="1.5707963"
           sodipodi:arg1="1.0471976"
           sodipodi:r2="11.381803"
           sodipodi:r1="13.142574"
           sodipodi:cy="40.209721"
           sodipodi:cx="147.98178"
           sodipodi:sides="6"
           id="path917"
           style="opacity:1;fill:none;fill-opacity:1;stroke:#0000ff;stroke-width:0.04526334;stroke-linecap:round;stroke-linejoin:round;stroke-miterlimit:4;stroke-dasharray:none;stroke-dashoffset:0;stroke-opacity:1"
           sodipodi:type="star" /><path
           inkscape:connector-curvature="0"
           style="fill:none;stroke:#0000ff;stroke-width:0.10713601;stroke-linecap:butt;stroke-linejoin:miter;stroke-miterlimit:4;stroke-dasharray:none;stroke-opacity:1"
           d="m 19.993636,74.09918 2.903162,-1.378713 0.03199,-0.0116 3.063485,-1.093062 3.142181,-0.784088 3.212159,-0.478032 3.244176,-0.160315 3.235459,0.160315 3.209226,0.478032 3.153846,0.784088 3.05182,1.093062 2.938159,1.390371 2.789469,1.661451 2.594212,1.935447 0.171958,0.160316 2.232767,2.025802 2.186136,2.401818 1.935436,2.60877 1.661452,2.77783 1.390352,2.938146 1.093084,3.051825 0.795753,3.153843 0.422642,2.914826 0.04375,0.294398 0.160307,3.24712 -0.160307,3.23254 -0.466388,3.21214 -0.795737,3.15384 -1.093084,3.04891 -1.390352,2.93815 -1.661452,2.77783 -1.935452,2.60877 -2.18612,2.40182 -2.232768,2.0258 -0.171957,0.16032 -2.594212,1.93544 -2.78947,1.66437 -2.938174,1.38746 -3.051804,1.09306 -3.153862,0.79866 -3.209226,0.46637 -3.235428,0.1574 -3.244207,-0.1574 -3.212143,-0.46637 -3.142181,-0.79866 -3.063485,-1.09306 -0.03199,-0.0116 -2.903182,-1.3758 -2.780736,-1.66437 -2.605846,-1.93545 -2.401824,-2.18612 -2.174486,-2.40182 -1.9354209,-2.60877 -1.6760336,-2.77783 -1.3874672,-2.93814 -1.0930524,-3.04891 -0.7870034,-3.15385 -0.4780222,-3.21214 -0.1574076,-3.23254 0.1574076,-3.24712 0.046568,-0.294395 0.4313756,-2.914826 0.7870034,-3.153843 1.0930526,-3.051824 1.3874672,-2.938146 1.6760336,-2.777829 1.9354203,-2.608772 2.174486,-2.401818 2.401824,-2.186117 2.605847,-1.935447 2.780736,-1.661452"
           id="path919" /><path
           sodipodi:nodetypes="cssscczzzcc"
           inkscape:connector-curvature="0"
           id="path921"
           d="m 56.562991,76.273916 c 0,0 -8.090636,-6.005868 -20.972202,-6.080549 C 22.709223,70.118685 2.5844168,79.487198 2.5163367,103.27088 2.4482566,127.05457 23.082099,136.50824 35.590824,136.33371 48.099549,136.15918 56.563,128.83094 56.563,128.83094 l 216.044,6e-5 c 0,0 7.52747,7.66478 20.97797,7.69274 13.4505,0.028 33.67277,-10.71287 32.83091,-35.11595 -0.84186,-24.403085 -23.34974,-31.118326 -32.82508,-31.214423 -9.47534,-0.0961 -21.08181,6.080549 -21.08181,6.080549 z"
           style="fill:none;stroke:#000000;stroke-width:0.0705;stroke-linecap:butt;stroke-linejoin:miter;stroke-miterlimit:4;stroke-dasharray:none;stroke-opacity:1" /><path
           inkscape:connector-curvature="0"
           style="fill:none;stroke:#0000ff;stroke-width:0.10713602;stroke-linecap:butt;stroke-linejoin:miter;stroke-miterlimit:4;stroke-dasharray:none;stroke-opacity:1"
           d="m 376.76289,5.0327637 -2.90978,-1.3818531 -0.032,-0.011629 -3.07046,-1.0955496 -3.14933,-0.7858742 -3.21948,-0.4791203 -3.25157,-0.1606806 -3.24282,0.1606806 -3.21653,0.4791203 -3.16104,0.7858742 -3.05876,1.0955496 -2.94486,1.3935373 -2.79581,1.6652353 -2.60013,1.9398546 -0.17234,0.1606806 -2.23786,2.0304156 -2.19111,2.407287 -1.93984,2.614712 -1.66524,2.784156 -1.39352,2.944837 -1.09557,3.058774 -0.79757,3.161026 -0.4236,2.921464 -0.0438,0.295069 -0.16068,3.254511 0.16068,3.239905 0.46744,3.219457 0.79755,3.161023 1.09557,3.055854 1.39353,2.944835 1.66523,2.784157 1.93986,2.614711 2.19109,2.407288 2.23786,2.030418 0.17235,0.160681 2.60012,1.939852 2.79582,1.668156 2.94487,1.390617 3.05875,1.09555 3.16104,0.800481 3.21654,0.467433 3.24279,0.157762 3.25159,-0.157762 3.21947,-0.467433 3.14934,-0.800481 3.07045,-1.09555 0.032,-0.01163 2.90979,-1.37893 2.78706,-1.668157 2.61179,-1.939852 2.40729,-2.191098 2.17944,-2.407289 1.93983,-2.614712 1.67984,-2.784156 1.39063,-2.944835 1.09554,-3.055854 0.7888,-3.161026 0.47911,-3.219454 0.15776,-3.239904 -0.15776,-3.254512 -0.0467,-0.29507 -0.43236,-2.921463 -0.7888,-3.161026 -1.09554,-3.058774 -1.39063,-2.944838 -1.67985,-2.784154 -1.93982,-2.614713 -2.17945,-2.407288 -2.40729,-2.1910956 -2.61178,-1.9398546 -2.78707,-1.6652353"
           id="path923" /><path
           inkscape:connector-curvature="0"
           style="fill:none;stroke:#0000ff;stroke-width:0.10713601;stroke-linecap:butt;stroke-linejoin:miter;stroke-miterlimit:4;stroke-dasharray:none;stroke-opacity:1"
           d="m 371.07923,15.663279 -1.85156,-0.879307 -0.0204,-0.0074 -1.95381,-0.697125 -2.004,-0.500071 -2.04863,-0.304876 -2.06905,-0.102245 -2.06349,0.102245 -2.04676,0.304876 -2.01144,0.500071 -1.94637,0.697125 -1.87388,0.886742 -1.77905,1.05963 -1.65452,1.234377 -0.10967,0.102245 -1.424,1.292003 -1.39426,1.531816 -1.23437,1.663805 -1.05963,1.771627 -0.88673,1.873872 -0.69714,1.946373 -0.50751,2.011438 -0.26955,1.858999 -0.0279,0.18776 -0.10224,2.070925 0.10224,2.061631 0.29745,2.048619 0.5075,2.011437 0.69714,1.944514 0.88673,1.873871 1.05963,1.771627 1.23438,1.663805 1.39425,1.531816 1.424,1.292005 0.10967,0.102245 1.65452,1.234375 1.77905,1.061489 1.87389,0.884884 1.94636,0.697125 2.01145,0.509366 2.04676,0.297439 2.06347,0.100388 2.06907,-0.100388 2.04862,-0.297439 2.004,-0.509366 1.95381,-0.697125 0.0204,-0.0074 1.85157,-0.877447 1.77348,-1.061489 1.66194,-1.234376 1.53182,-1.394249 1.38683,-1.531817 1.23436,-1.663805 1.06893,-1.771627 0.88489,-1.873871 0.69712,-1.944514 0.50193,-2.011438 0.30487,-2.048618 0.10039,-2.06163 -0.10039,-2.070926 -0.0297,-0.18776 -0.27512,-1.858999 -0.50193,-2.011438 -0.69712,-1.946373 -0.88489,-1.873872 -1.06893,-1.771626 -1.23436,-1.663806 -1.38683,-1.531816 -1.53182,-1.394248 -1.66194,-1.234377 -1.77348,-1.05963"
           id="path925" /><path
           id="path927"
           d="m 376.76289,72.532764 -2.90978,-1.381853 -0.032,-0.01163 -3.07046,-1.09555 -3.14933,-0.785874 -3.21948,-0.47912 -3.25157,-0.160681 -3.24282,0.160681 -3.21653,0.47912 -3.16104,0.785874 -3.05876,1.09555 -2.94486,1.393537 -2.79581,1.665236 -2.60013,1.939854 -0.17234,0.160681 -2.23786,2.030415 -2.19111,2.407287 -1.93984,2.614712 -1.66524,2.784156 -1.39352,2.944837 -1.09557,3.058774 -0.79757,3.16103 -0.4236,2.92146 -0.0438,0.29507 -0.16068,3.25451 0.16068,3.23991 0.46744,3.21945 0.79755,3.16103 1.09557,3.05585 1.39353,2.94483 1.66523,2.78416 1.93986,2.61471 2.19109,2.40729 2.23786,2.03042 0.17235,0.16068 2.60012,1.93985 2.79582,1.66816 2.94487,1.39061 3.05875,1.09555 3.16104,0.80049 3.21654,0.46743 3.24279,0.15776 3.25159,-0.15776 3.21947,-0.46743 3.14934,-0.80049 3.07045,-1.09555 0.032,-0.0116 2.90979,-1.37893 2.78706,-1.66815 2.61179,-1.93985 2.40729,-2.1911 2.17944,-2.40729 1.93983,-2.61471 1.67984,-2.78416 1.39063,-2.94483 1.09554,-3.05586 0.7888,-3.16102 0.47911,-3.21946 0.15776,-3.2399 -0.15776,-3.25451 -0.0467,-0.29507 -0.43236,-2.92147 -0.7888,-3.161024 -1.09554,-3.058774 -1.39063,-2.944838 -1.67985,-2.784154 -1.93982,-2.614713 -2.17945,-2.407288 -2.40729,-2.191095 -2.61178,-1.939855 -2.78707,-1.665235"
           style="fill:none;stroke:#0000ff;stroke-width:0.10713602;stroke-linecap:butt;stroke-linejoin:miter;stroke-miterlimit:4;stroke-dasharray:none;stroke-opacity:1"
           inkscape:connector-curvature="0" /><path
           id="path929"
           d="m 371.07923,83.163279 -1.85156,-0.879307 -0.0204,-0.0074 -1.95381,-0.697125 -2.004,-0.500071 -2.04863,-0.304876 -2.06905,-0.102245 -2.06349,0.102245 -2.04676,0.304876 -2.01144,0.500071 -1.94637,0.697125 -1.87388,0.886742 -1.77905,1.05963 -1.65452,1.234377 -0.10967,0.102245 -1.424,1.292003 -1.39426,1.531816 -1.23437,1.663805 -1.05963,1.771627 -0.88673,1.873873 -0.69714,1.94637 -0.50751,2.01144 -0.26955,1.859 -0.0279,0.18776 -0.10224,2.07092 0.10224,2.06164 0.29745,2.04861 0.5075,2.01144 0.69714,1.94452 0.88673,1.87387 1.05963,1.77162 1.23438,1.66381 1.39425,1.53181 1.424,1.29201 0.10967,0.10224 1.65452,1.23438 1.77905,1.06149 1.87389,0.88488 1.94636,0.69713 2.01145,0.50936 2.04676,0.29744 2.06347,0.10039 2.06907,-0.10039 2.04862,-0.29744 2.004,-0.50936 1.95381,-0.69713 0.0204,-0.007 1.85157,-0.87744 1.77348,-1.06149 1.66194,-1.23438 1.53182,-1.39425 1.38683,-1.53182 1.23436,-1.6638 1.06893,-1.77163 0.88489,-1.87387 0.69712,-1.94451 0.50193,-2.01144 0.30487,-2.04862 0.10039,-2.06163 -0.10039,-2.07092 -0.0297,-0.18776 -0.27512,-1.859 -0.50193,-2.01144 -0.69712,-1.94637 -0.88489,-1.873877 -1.06893,-1.771626 -1.23436,-1.663806 -1.38683,-1.531816 -1.53182,-1.394248 -1.66194,-1.234377 -1.77348,-1.05963"
           style="fill:none;stroke:#0000ff;stroke-width:0.10713601;stroke-linecap:butt;stroke-linejoin:miter;stroke-miterlimit:4;stroke-dasharray:none;stroke-opacity:1"
           inkscape:connector-curvature="0" /><path
           id="path931"
           d="m 444.26289,5.0327637 -2.90978,-1.3818531 -0.032,-0.011629 -3.07046,-1.0955496 -3.14933,-0.7858742 -3.21948,-0.4791203 -3.25157,-0.1606806 -3.24282,0.1606806 -3.21653,0.4791203 -3.16104,0.7858742 -3.05876,1.0955496 -2.94486,1.3935373 -2.79581,1.6652353 -2.60013,1.9398546 -0.17234,0.1606806 -2.23786,2.0304156 -2.19111,2.407287 -1.93984,2.614712 -1.66524,2.784156 -1.39352,2.944837 -1.09557,3.058774 -0.79757,3.161026 -0.4236,2.921464 -0.0438,0.295069 -0.16068,3.254511 0.16068,3.239905 0.46744,3.219457 0.79755,3.161023 1.09557,3.055854 1.39353,2.944835 1.66523,2.784157 1.93986,2.614711 2.19109,2.407288 2.23786,2.030418 0.17235,0.160681 2.60012,1.939852 2.79582,1.668156 2.94487,1.390617 3.05875,1.09555 3.16104,0.800481 3.21654,0.467433 3.24279,0.157762 3.25159,-0.157762 3.21947,-0.467433 3.14934,-0.800481 3.07045,-1.09555 0.032,-0.01163 2.90979,-1.37893 2.78706,-1.668157 2.61179,-1.939852 2.40729,-2.191098 2.17944,-2.407289 1.93983,-2.614712 1.67984,-2.784156 1.39063,-2.944835 1.09554,-3.055854 0.7888,-3.161026 0.47911,-3.219454 0.15776,-3.239904 -0.15776,-3.254512 -0.0467,-0.29507 -0.43236,-2.921463 -0.7888,-3.161026 -1.09554,-3.058774 -1.39063,-2.944838 -1.67985,-2.784154 -1.93982,-2.614713 -2.17945,-2.407288 -2.40729,-2.1910956 -2.61178,-1.9398546 -2.78707,-1.6652353"
           style="fill:none;stroke:#0000ff;stroke-width:0.10713602;stroke-linecap:butt;stroke-linejoin:miter;stroke-miterlimit:4;stroke-dasharray:none;stroke-opacity:1"
           inkscape:connector-curvature="0" /><path
           id="path933"
           d="m 438.57923,15.663279 -1.85156,-0.879307 -0.0204,-0.0074 -1.95381,-0.697125 -2.004,-0.500071 -2.04863,-0.304876 -2.06905,-0.102245 -2.06349,0.102245 -2.04676,0.304876 -2.01144,0.500071 -1.94637,0.697125 -1.87388,0.886742 -1.77905,1.05963 -1.65452,1.234377 -0.10967,0.102245 -1.424,1.292003 -1.39426,1.531816 -1.23437,1.663805 -1.05963,1.771627 -0.88673,1.873872 -0.69714,1.946373 -0.50751,2.011438 -0.26955,1.858999 -0.0279,0.18776 -0.10224,2.070925 0.10224,2.061631 0.29745,2.048619 0.5075,2.011437 0.69714,1.944514 0.88673,1.873871 1.05963,1.771627 1.23438,1.663805 1.39425,1.531816 1.424,1.292005 0.10967,0.102245 1.65452,1.234375 1.77905,1.061489 1.87389,0.884884 1.94636,0.697125 2.01145,0.509366 2.04676,0.297439 2.06347,0.100388 2.06907,-0.100388 2.04862,-0.297439 2.004,-0.509366 1.95381,-0.697125 0.0204,-0.0074 1.85157,-0.877447 1.77348,-1.061489 1.66194,-1.234376 1.53182,-1.394249 1.38683,-1.531817 1.23436,-1.663805 1.06893,-1.771627 0.88489,-1.873871 0.69712,-1.944514 0.50193,-2.011438 0.30487,-2.048618 0.10039,-2.06163 -0.10039,-2.070926 -0.0297,-0.18776 -0.27512,-1.858999 -0.50193,-2.011438 -0.69712,-1.946373 -0.88489,-1.873872 -1.06893,-1.771626 -1.23436,-1.663806 -1.38683,-1.531816 -1.53182,-1.394248 -1.66194,-1.234377 -1.77348,-1.05963"
           style="fill:none;stroke:#0000ff;stroke-width:0.10713601;stroke-linecap:butt;stroke-linejoin:miter;stroke-miterlimit:4;stroke-dasharray:none;stroke-opacity:1"
           inkscape:connector-curvature="0" /><path
           inkscape:connector-curvature="0"
           style="fill:none;stroke:#0000ff;stroke-width:0.10713602;stroke-linecap:butt;stroke-linejoin:miter;stroke-miterlimit:4;stroke-dasharray:none;stroke-opacity:1"
           d="m 444.26289,72.532764 -2.90978,-1.381853 -0.032,-0.01163 -3.07046,-1.09555 -3.14933,-0.785874 -3.21948,-0.47912 -3.25157,-0.160681 -3.24282,0.160681 -3.21653,0.47912 -3.16104,0.785874 -3.05876,1.09555 -2.94486,1.393537 -2.79581,1.665236 -2.60013,1.939854 -0.17234,0.160681 -2.23786,2.030415 -2.19111,2.407287 -1.93984,2.614712 -1.66524,2.784156 -1.39352,2.944837 -1.09557,3.058774 -0.79757,3.16103 -0.4236,2.92146 -0.0438,0.29507 -0.16068,3.25451 0.16068,3.23991 0.46744,3.21945 0.79755,3.16103 1.09557,3.05585 1.39353,2.94483 1.66523,2.78416 1.93986,2.61471 2.19109,2.40729 2.23786,2.03042 0.17235,0.16068 2.60012,1.93985 2.79582,1.66816 2.94487,1.39061 3.05875,1.09555 3.16104,0.80049 3.21654,0.46743 3.24279,0.15776 3.25159,-0.15776 3.21947,-0.46743 3.14934,-0.80049 3.07045,-1.09555 0.032,-0.0116 2.90979,-1.37893 2.78706,-1.66815 2.61179,-1.93985 2.40729,-2.1911 2.17944,-2.40729 1.93983,-2.61471 1.67984,-2.78416 1.39063,-2.94483 1.09554,-3.05586 0.7888,-3.16102 0.47911,-3.21946 0.15776,-3.2399 -0.15776,-3.25451 -0.0467,-0.29507 -0.43236,-2.92147 -0.7888,-3.161024 -1.09554,-3.058774 -1.39063,-2.944838 -1.67985,-2.784154 -1.93982,-2.614713 -2.17945,-2.407288 -2.40729,-2.191095 -2.61178,-1.939855 -2.78707,-1.665235"
           id="path935" /><path
           inkscape:connector-curvature="0"
           style="fill:none;stroke:#0000ff;stroke-width:0.10713601;stroke-linecap:butt;stroke-linejoin:miter;stroke-miterlimit:4;stroke-dasharray:none;stroke-opacity:1"
           d="m 438.57923,83.163279 -1.85156,-0.879307 -0.0204,-0.0074 -1.95381,-0.697125 -2.004,-0.500071 -2.04863,-0.304876 -2.06905,-0.102245 -2.06349,0.102245 -2.04676,0.304876 -2.01144,0.500071 -1.94637,0.697125 -1.87388,0.886742 -1.77905,1.05963 -1.65452,1.234377 -0.10967,0.102245 -1.424,1.292003 -1.39426,1.531816 -1.23437,1.663805 -1.05963,1.771627 -0.88673,1.873873 -0.69714,1.94637 -0.50751,2.01144 -0.26955,1.859 -0.0279,0.18776 -0.10224,2.07092 0.10224,2.06164 0.29745,2.04861 0.5075,2.01144 0.69714,1.94452 0.88673,1.87387 1.05963,1.77162 1.23438,1.66381 1.39425,1.53181 1.424,1.29201 0.10967,0.10224 1.65452,1.23438 1.77905,1.06149 1.87389,0.88488 1.94636,0.69713 2.01145,0.50936 2.04676,0.29744 2.06347,0.10039 2.06907,-0.10039 2.04862,-0.29744 2.004,-0.50936 1.95381,-0.69713 0.0204,-0.007 1.85157,-0.87744 1.77348,-1.06149 1.66194,-1.23438 1.53182,-1.39425 1.38683,-1.53182 1.23436,-1.6638 1.06893,-1.77163 0.88489,-1.87387 0.69712,-1.94451 0.50193,-2.01144 0.30487,-2.04862 0.10039,-2.06163 -0.10039,-2.07092 -0.0297,-0.18776 -0.27512,-1.859 -0.50193,-2.01144 -0.69712,-1.94637 -0.88489,-1.873877 -1.06893,-1.771626 -1.23436,-1.663806 -1.38683,-1.531816 -1.53182,-1.394248 -1.66194,-1.234377 -1.77348,-1.05963"
           id="path937" /></g></g></g></svg>