<?xml version="1.0" encoding="UTF-8" standalone="no"?>
<!-- Created with Inkscape (http://www.inkscape.org/) -->

<svg
   xmlns:dc="http://purl.org/dc/elements/1.1/"
   xmlns:cc="http://creativecommons.org/ns#"
   xmlns:rdf="http://www.w3.org/1999/02/22-rdf-syntax-ns#"
   xmlns:svg="http://www.w3.org/2000/svg"
   xmlns="http://www.w3.org/2000/svg"
   xmlns:sodipodi="http://sodipodi.sourceforge.net/DTD/sodipodi-0.dtd"
   xmlns:inkscape="http://www.inkscape.org/namespaces/inkscape"
   id="svg3336"
   version="1.1"
   inkscape:version="0.91 r13725"
   xml:space="preserve"
   width="1771.6536"
   height="1052.3622"
   viewBox="0 0 1771.6536 1052.3622"
   sodipodi:docname="waste bin.svg"><metadata
     id="metadata3342"><rdf:RDF><cc:Work
         rdf:about=""><dc:format>image/svg+xml</dc:format><dc:type
           rdf:resource="http://purl.org/dc/dcmitype/StillImage" /><dc:title></dc:title></cc:Work></rdf:RDF></metadata><defs
     id="defs3340" /><sodipodi:namedview
     pagecolor="#ffffff"
     bordercolor="#666666"
     borderopacity="1"
     objecttolerance="10"
     gridtolerance="10"
     guidetolerance="10"
     inkscape:pageopacity="0"
     inkscape:pageshadow="2"
     inkscape:window-width="1375"
     inkscape:window-height="876"
     id="namedview3338"
     showgrid="false"
     inkscape:zoom="0.47504985"
     inkscape:cx="598.24421"
     inkscape:cy="181.70748"
     inkscape:window-x="65"
     inkscape:window-y="24"
     inkscape:window-maximized="1"
     inkscape:current-layer="g3344" /><g
     id="g3344"
     inkscape:groupmode="layer"
     inkscape:label="drawing"
     transform="matrix(1.25,0,0,-1.25,0,1052.3622)"><path
       style="fill:none;stroke:#000000;stroke-width:0.28346457;stroke-miterlimit:4;stroke-dasharray:none;stroke-opacity:1"
       d="m 110.46451,21.923015 -10.466677,16.409446 9.988727,17.688091 9.98857,17.68809 0.3962,-5.923934 0.3962,-5.923934 15.08091,-0.367171 15.08092,-0.367187 4.05779,-7.782601 c 4.70514,-9.023829 5.36161,-18.335833 1.7723,-25.141036 -2.97297,-5.637096 -5.84021,-6.939288 -16.94296,-7.694892 -17.83784,-1.21396 -17.3532,-0.995462 -17.71529,-7.989122 -0.1751,-3.3845948 -0.51011,-6.3453951 -0.74427,-6.5795255 -0.234,-0.2341304 -5.13559,6.9585595 -10.89242,15.9837755 z"
       id="path3889"
       inkscape:connector-curvature="0" /><path
       style="fill:none;stroke:#000000;stroke-width:0.28346457;stroke-miterlimit:4;stroke-dasharray:none;stroke-opacity:1"
       d="m 43.357296,22.071346 c -7.180239,2.209324 -8.110854,3.40163 -19.27676,24.695277 -4.518124,8.615895 -9.405686,17.642221 -10.861577,20.05849 l -2.64694,4.393242 5.647818,-3.740523 5.64798,-3.740506 30.777512,-0.652719 30.777513,-0.65272 L 83.781511,41.218509 84.14018,20.00513 66.810808,20.09618 C 55.652897,20.1546 47.300537,20.858197 43.357296,22.071472 Z"
       id="path3887"
       inkscape:connector-curvature="0" /><path
       style="fill:none;stroke:#000000;stroke-width:0.28346457;stroke-miterlimit:4;stroke-dasharray:none;stroke-opacity:1"
       d="m 164.651,38.712752 c 1.35667,7.097295 -0.76124,11.429621 -23.4855,48.04065 l -8.61394,13.877988 17.39889,10.81969 c 9.56919,5.95081 17.88386,10.80038 18.47685,10.77682 1.83986,-0.0731 18.53544,-28.161806 20.13607,-33.876854 0.83352,-2.976253 1.08498,-6.794661 0.55873,-8.485351 -0.95265,-3.060568 -23.90144,-44.195301 -24.65631,-44.195301 -0.21801,0 -0.13381,1.369063 0.18521,3.042358 z"
       id="path3885"
       inkscape:connector-curvature="0" /><path
       style="fill:none;stroke:#000000;stroke-width:0.28346457;stroke-miterlimit:4;stroke-dasharray:none;stroke-opacity:1"
       d="M 24.620498,69.77529 C 17.677196,71.33945 10.246475,77.603337 8.2853796,83.545335 6.7968532,88.055854 7.0519032,88.99812 13.084825,101.27874 l 6.37152,12.96978 -5.221754,4.42372 -5.2217557,4.42371 19.8351627,0.0194 19.834998,0.0194 8.884653,-16.61318 c 4.88642,-9.137254 9.095155,-17.112277 9.352652,-17.72226 0.257335,-0.609998 -1.903003,0.100519 -4.801077,1.579043 l -5.26924,2.688126 -7.60059,-12.37329 -7.600591,-12.373307 -5.874474,0.132991 c -3.230961,0.07327 -8.250209,0.668238 -11.153831,1.322361 z"
       id="path3883"
       inkscape:connector-curvature="0" /><path
       style="fill:none;stroke:#000000;stroke-width:0.28346457;stroke-miterlimit:4;stroke-dasharray:none;stroke-opacity:1"
       d="m 61.165764,126.60734 c -7.144339,3.97235 -15.445624,8.63533 -18.447154,10.36216 l -5.457386,3.13973 7.496155,13.42568 c 4.122902,7.38414 8.928548,15.37109 10.679141,17.7488 5.553989,7.54328 7.55539,7.98578 36.080531,7.9769 24.205609,-0.008 25.598509,-0.13707 21.930879,-2.04071 -8.60692,-4.46721 -10.53897,-7.1384 -28.734825,-39.72529 -4.209551,-7.53891 -8.30716,-14.6977 -9.105599,-15.90842 -1.306581,-1.98098 -2.752028,-1.47845 -14.441742,5.02115 z"
       id="path3881"
       inkscape:connector-curvature="0" /><path
       style="fill:none;stroke:#000000;stroke-width:0.28346457;stroke-miterlimit:4;stroke-dasharray:none;stroke-opacity:1"
       d="m 116.14056,121.72364 -11.66736,0.75843 4.81381,2.58137 c 2.64743,1.41976 4.81364,2.7416 4.81364,2.93742 0,0.19581 -3.19408,6.05542 -7.09783,13.02134 -7.053451,12.58592 -7.084129,12.68896 -4.8954,16.43743 6.81586,11.67335 15.24361,17.89271 24.24624,17.89271 7.1277,0 8.338,-0.96537 16.58152,-13.2252 4.28184,-6.36797 8.08703,-11.57814 8.45614,-11.57814 0.36912,0 3.0544,1.21587 5.96733,2.70195 2.91293,1.48606 5.49655,2.50163 5.74149,2.25679 0.24477,-0.24483 -3.79198,-8.06949 -8.9705,-17.38812 l -9.41564,-16.94299 -8.45304,-0.10574 c -4.64932,-0.0581 -13.70351,0.23558 -20.1204,0.65272 z"
       id="path3879"
       inkscape:connector-curvature="0" /><path
       style="fill:none;stroke:#000000;stroke-width:0.28346457;stroke-miterlimit:4;stroke-dasharray:none;stroke-opacity:1"
       d="m 230.49711,7.5764926 c -1.20678,0.4869444 -2.19415,2.0043862 -2.19415,3.3720344 0,1.776985 -2.25436,2.486701 -7.89887,2.486701 l -7.89889,0 0,35.983813 c 0,35.257861 -0.0735,35.983812 -3.64565,35.983812 -2.00509,0 -5.95453,2.30889 -8.77654,5.130898 l -5.13089,5.130897 0,23.500722 c 0,21.22406 0.34671,23.87282 3.579,27.34228 3.3454,3.59088 6.50757,4.65727 11.77995,3.97264 1.57461,-0.2045 2.19413,3.20612 2.19413,12.07916 l 0,12.3641 56.10071,0 56.10097,0 0.10089,-77.882281 c 0.0549,-42.835283 -0.39253,-79.170158 -0.99636,-80.744165 -0.95839,-2.497101 -5.07524,-2.861876 -32.30139,-2.861876 -29.7268,0 -31.24646,-0.166097 -32.12105,-3.5106161 -0.81731,-3.1255233 -2.33191,-3.4954105 -13.80832,-3.3720344 -7.08969,0.076136 -13.87768,0.5369927 -15.08446,1.0239151 z"
       id="path3801"
       inkscape:connector-curvature="0" /><path
       style="fill:none;fill-opacity:1;stroke:#000000;stroke-width:0.28346457;stroke-miterlimit:4;stroke-dasharray:none;stroke-opacity:1"
       d="m 213.38285,118.75371 0,21.94134 -4.38826,0 -4.38828,0 -0.49943,-20.07872 c -0.27465,-11.04328 -0.0807,-21.169762 0.431,-22.503269 0.51412,-1.339805 2.70093,-2.173159 4.88767,-1.862646 3.86517,0.548864 3.9573,1.072779 3.9573,22.503295 z"
       id="path3799"
       inkscape:connector-curvature="0" /><path
       style="fill:none;stroke:#000000;stroke-width:0.28346457;stroke-miterlimit:4;stroke-dasharray:none;stroke-opacity:1"
       d="m 527.22398,9.8857757 c -0.85636,3.2749663 -2.71238,3.4988333 -32.74767,3.9494423 l -31.83975,0.477664 -0.434,80.305339 -0.43422,80.305329 56.08494,0 56.08494,0 0.51913,-11.6793 c 0.48403,-10.89277 0.81008,-11.72336 4.84334,-12.33334 2.37823,-0.35973 6.13019,-2.35071 8.3377,-4.42444 3.77479,-3.54635 4.0133,-5.10329 4.0133,-26.20084 0,-26.392131 -1.35795,-30.586287 -10.82103,-33.421461 l -6.73204,-2.017002 0,-35.705969 0,-35.70597 -7.69418,0 c -6.21796,0 -7.87014,-0.673556 -8.6122,-3.5106161 C 556.96855,6.774602 555.398,6.413996 542.50307,6.413996 c -12.84118,0 -14.46769,0.3695801 -15.27909,3.4717797 z"
       id="path3797"
       inkscape:connector-curvature="0" /><path
       style="fill:none;fill-opacity:1;stroke:#000000;stroke-width:0.28346457;stroke-miterlimit:4;stroke-dasharray:none;stroke-opacity:1"
       d="m 581.99749,118.75371 0,21.94134 -4.38826,0 -4.38828,0 -0.49938,-20.07872 c -0.2747,-11.04328 -0.0812,-21.169762 0.43093,-22.503269 0.51408,-1.339805 2.70098,-2.173159 4.88765,-1.862646 3.86519,0.548864 3.95734,1.072779 3.95734,22.503295 z"
       id="path3795"
       inkscape:connector-curvature="0" /><path
       style="fill:none;stroke:#000000;stroke-width:0.28346457;stroke-miterlimit:4;stroke-dasharray:none;stroke-opacity:1"
       d="m 333.00071,14.644263 c -0.69029,0.690121 -1.16685,37.045357 -1.05934,80.789408 l 0.19528,79.534669 60.86333,-0.4614 60.86334,-0.46143 0,-79.866512 0,-79.866512 -59.80401,-0.461513 c -32.89228,-0.253818 -60.36878,0.10313 -61.05883,0.79329 z"
       id="path3793"
       inkscape:connector-curvature="0" /><path
       style="fill:none;fill-opacity:1;stroke:#000000;stroke-width:0.28346457;stroke-miterlimit:4;stroke-dasharray:none;stroke-opacity:1"
       d="m 435.5482,97.751358 c 2.9136,1.559349 3.39521,3.769522 3.39521,15.582852 0,10.65584 -0.65495,14.31004 -2.89933,16.17486 -2.21081,1.83697 -12.02517,2.54873 -41.32983,2.99725 -48.14655,0.7369 -47.04685,1.18034 -47.04685,-18.97218 0,-11.40039 0.55511,-14.238068 3.07179,-15.703926 4.15306,-2.418924 80.30423,-2.489706 84.80901,-0.07877 z"
       id="path3791"
       inkscape:connector-curvature="0" /><path
       style="fill:none;stroke:#000000;stroke-width:0.28346457;stroke-miterlimit:4;stroke-dasharray:none;stroke-opacity:1"
       d="m 354.13636,102.33771 c -0.66175,0.66162 -1.20304,6.20554 -1.20304,12.3199 l 0,11.11693 40.45239,0 40.45216,0 -0.51891,-11.84833 -0.51912,-11.84833 -38.73022,-0.47154 c -21.30176,-0.25934 -39.27172,0.0698 -39.93326,0.73137 z"
       id="path3789"
       inkscape:connector-curvature="0" /><path
       style="fill:none;stroke:#000000;stroke-width:0.28346457;stroke-miterlimit:4;stroke-dasharray:none;stroke-opacity:1"
       d="m 203.73216,184.57737 0,4.38826 189.57324,0 189.57326,0 0,-4.38826 0,-4.38828 -189.57326,0 -189.57324,0 0,4.38828 z"
       id="path3787"
       inkscape:connector-curvature="0" /><path
       style="fill:none;stroke:#000000;stroke-width:0.28346457;stroke-miterlimit:4;stroke-dasharray:none;stroke-opacity:1"
       d="m 214.28049,197.30333 c 0.87403,2.65492 4.82414,14.89818 8.77799,27.20729 l 7.18879,22.38017 8.45585,0 8.45587,0 -5.9768,-22.38017 c -3.28723,-12.30911 -6.44297,-24.55237 -7.01272,-27.20729 -0.98601,-4.59467 -1.52804,-4.82709 -11.25701,-4.82709 l -10.22113,0 1.58916,4.82709 z"
       id="path3785"
       inkscape:connector-curvature="0" /><path
       style="fill:none;stroke:#000000;stroke-width:0.28346457;stroke-miterlimit:4;stroke-dasharray:none;stroke-opacity:1"
       d="m 238.83832,194.66234 c 0,1.20239 2.88126,13.44564 6.40277,27.20728 l 6.40278,25.02117 13.971,0 c 10.42893,0 13.77039,-0.55632 13.17973,-2.19413 -0.43531,-1.20677 -3.07706,-13.45005 -5.87041,-27.20727 l -5.07877,-25.01315 -14.5036,0 c -10.4042,0 -14.5035,0.61789 -14.5035,2.1861 z"
       id="path3783"
       inkscape:connector-curvature="0" /><path
       style="fill:none;stroke:#000000;stroke-width:0.28346457;stroke-miterlimit:4;stroke-dasharray:none;stroke-opacity:1"
       d="m 273.90278,194.67112 c -0.022,1.20678 2.14937,13.44988 4.82709,27.20686 l 4.86879,25.01196 13.82305,4.4e-4 13.82305,4.1e-4 -0.90947,-4.8271 c -0.50026,-2.6549 -2.33742,-14.89817 -4.08219,-27.20726 l -3.17272,-22.38019 -14.56796,0 c -10.46186,0 -14.57958,0.61845 -14.60964,2.19415 z"
       id="path3781"
       inkscape:connector-curvature="0" /><path
       style="fill:none;stroke:#000000;stroke-width:0.28346457;stroke-miterlimit:4;stroke-dasharray:none;stroke-opacity:1"
       d="m 309.05063,196.81137 c 0,4.40801 4.66056,38.92466 6.22871,46.12999 0.798,3.66716 1.79786,3.94943 13.99089,3.94943 11.32459,0 13.1354,-0.42263 13.16065,-3.07178 0.022,-1.68949 -0.929,-13.93277 -2.10023,-27.20728 l -2.12984,-24.13549 -14.57499,0 c -14.32901,0 -14.57519,0.0732 -14.57519,4.33513 z"
       id="path3779"
       inkscape:connector-curvature="0" /><path
       style="fill:none;stroke:#000000;stroke-width:0.28346457;stroke-miterlimit:4;stroke-dasharray:none;stroke-opacity:1"
       d="m 344.86769,211.3458 c 0.6545,10.37826 1.65392,22.62154 2.22089,27.20728 l 1.03103,8.33771 14.00429,0 c 12.04864,0 13.8553,-0.38768 12.93859,-2.77653 -0.58605,-1.52708 -1.06548,-13.77036 -1.06548,-27.20726 l 0,-24.43076 -15.15971,0 -15.15949,0 1.18988,18.86956 z"
       id="path3777"
       inkscape:connector-curvature="0" /><path
       style="fill:none;stroke:#000000;stroke-width:0.28346457;stroke-miterlimit:4;stroke-dasharray:none;stroke-opacity:1"
       d="m 378.19746,195.25276 c 0.58606,1.52711 1.06548,13.77038 1.06548,27.20729 l 0,24.43074 13.95228,0 13.9523,0 0.529,-25.47926 c 0.29094,-14.01357 0.26571,-26.25684 -0.0549,-27.20725 -0.32255,-0.95293 -7.29617,-1.72804 -15.54678,-1.72804 -12.92191,0 -14.81632,0.37854 -13.8961,2.77652 z"
       id="path3775"
       inkscape:connector-curvature="0" /><path
       style="fill:none;stroke:#000000;stroke-width:0.28346457;stroke-miterlimit:4;stroke-dasharray:none;stroke-opacity:1"
       d="m 413.78414,193.64647 c -0.64376,0.64357 -1.17035,12.88688 -1.17035,27.20725 l 0,26.03707 12.93882,0 12.93859,0 1.06262,-8.33771 c 0.58451,-4.58574 1.5925,-16.82902 2.23999,-27.20728 l 1.17737,-18.86956 -14.00846,0 c -7.7047,0 -14.53503,0.5266 -15.17858,1.17023 z"
       id="path3773"
       inkscape:connector-curvature="0" /><path
       style="fill:none;stroke:#000000;stroke-width:0.28346457;stroke-miterlimit:4;stroke-dasharray:none;stroke-opacity:1"
       d="m 446.28037,216.61173 c -1.17145,13.27451 -2.11668,25.51779 -2.10044,27.20728 0.0263,2.64984 1.83781,3.07178 13.19421,3.07178 7.24065,0 13.21945,-0.19747 13.28593,-0.43882 0.0659,-0.24135 1.90298,-12.48463 4.08066,-27.20728 l 3.95953,-26.76845 -15.14524,0 -15.14502,0 -2.12963,24.13549 z"
       id="path3771"
       inkscape:connector-curvature="0" /><path
       style="fill:none;stroke:#000000;stroke-width:0.28346457;stroke-miterlimit:4;stroke-dasharray:none;stroke-opacity:1"
       d="m 480.53236,213.10111 c -1.66403,11.34368 -3.51193,23.58696 -4.1061,27.20728 l -1.08062,6.5824 13.95251,0 13.95251,0 4.70772,-25.17524 c 2.58953,-13.84637 4.70797,-26.08964 4.70797,-27.20728 0,-1.37578 -4.70028,-2.03203 -14.55415,-2.03203 l -14.55435,0 -3.02549,20.62487 z"
       id="path3769"
       inkscape:connector-curvature="0" /><path
       style="fill:none;stroke:#000000;stroke-width:0.28346457;stroke-miterlimit:4;stroke-dasharray:none;stroke-opacity:1"
       d="m 513.68661,217.48939 c -2.79335,13.75722 -5.43509,26.0005 -5.8704,27.20727 -0.59088,1.63817 2.75935,2.19413 13.22119,2.19413 l 14.01241,0 6.36146,-25.41148 c 3.49877,-13.97634 6.36123,-26.21961 6.36123,-27.20728 0,-1.07929 -5.7868,-1.79579 -14.50346,-1.79579 l -14.50344,0 -5.07899,25.01315 z"
       id="path3767"
       inkscape:connector-curvature="0" /><path
       style="fill:none;stroke:#000000;stroke-width:0.28346457;stroke-miterlimit:4;stroke-dasharray:none;stroke-opacity:1"
       d="m 551.64976,200.81396 c -1.09553,4.58574 -4.30051,16.82902 -7.12238,27.20727 l -5.13055,18.86956 8.47924,0 8.47922,0 8.07728,-25.01314 c 4.44269,-13.75722 8.411,-26.0005 8.81845,-27.20726 0.53624,-1.5882 -2.06907,-2.19415 -9.43435,-2.19415 l -10.17529,0 -1.99162,8.33772 z"
       id="path3765"
       inkscape:connector-curvature="0" /><path
       style="fill:none;stroke:#000000;stroke-width:0.28346457;stroke-miterlimit:4;stroke-dasharray:none;stroke-opacity:1"
       d="m 633.81607,6.837391 c -3.41445,0.682711 -6.55317,3.632553 -7.43952,6.991786 -0.24854,0.941957 -1.56747,12.20189 -6.14188,52.434139 -0.97097,8.539647 -1.93747,16.958375 -2.14779,18.708292 -0.21032,1.749934 -1.25393,10.913172 -2.31915,20.362782 -1.0652,9.44959 -2.987,26.45887 -4.27068,37.79839 l -2.33395,20.61731 -3.10017,0.12729 c -3.46815,0.14239 -4.14919,0.42327 -4.98091,2.05437 -0.38789,0.7607 -0.44496,1.67359 -0.44448,7.10887 5.2e-4,5.77407 0.038,6.29756 0.50635,7.06566 0.27818,0.45627 0.87909,1.05718 1.33534,1.33536 0.8228,0.50167 1.43896,0.50578 75.53548,0.50578 73.60004,0 74.71796,-0.007 75.51934,-0.49595 1.70052,-1.03689 1.73192,-1.18921 1.73192,-8.39965 0,-6.07639 -0.0339,-6.56012 -0.51773,-7.39271 -0.82442,-1.41863 -1.84396,-1.78088 -5.01354,-1.78135 -2.62461,-2.5e-4 -2.73643,-0.0227 -2.86005,-0.57309 -0.0707,-0.31498 -0.82184,-6.70063 -1.66907,-14.19032 -0.84721,-7.48966 -1.76399,-15.50751 -2.03727,-17.81741 -0.89347,-7.55166 -1.25194,-10.66686 -2.54834,-22.14452 -0.70364,-6.22973 -1.90584,-16.76747 -2.67156,-23.417179 -0.76571,-6.649726 -2.93049,-25.491649 -4.8106,-41.870956 -2.00052,-17.428142 -3.57958,-30.23041 -3.80698,-30.865124 -0.90468,-2.525085 -2.96305,-4.571357 -5.7544,-5.720565 l -1.39994,-0.576363 -43.65271,-0.03784 c -24.00898,-0.02091 -44.12745,0.05709 -44.70771,0.17308 z"
       id="path4824"
       inkscape:connector-curvature="0" /><path
       style="fill:none;stroke:#000000;stroke-width:0.28346457;stroke-miterlimit:4;stroke-dasharray:none;stroke-opacity:1"
       d="m 650.27044,13.324127 c 0,1.006184 -0.74561,13.561901 -0.91048,15.3317 l -0.1482,1.590844 -9.40053,0 -9.40053,0 0.13924,-0.954503 c 0.0767,-0.524982 0.46573,-3.916328 0.86477,-7.536351 0.78746,-7.144071 0.84322,-7.328934 2.56289,-8.499335 0.82699,-0.562854 0.97435,-0.572712 8.56713,-0.572712 l 7.72566,0 0,0.640357 z"
       id="path4822"
       inkscape:connector-curvature="0" /><path
       style="fill:none;stroke:#000000;stroke-width:0.28346457;stroke-miterlimit:4;stroke-dasharray:none;stroke-opacity:1"
       d="m 674.9603,21.465221 0,8.78145 -9.81019,0 -9.8102,0 0.14355,-1.845377 c 0.20033,-2.575105 0.89582,-14.270634 0.89582,-15.064355 l 0,-0.653169 9.2905,0 9.29052,0 0,8.781451 z"
       id="path4820"
       inkscape:connector-curvature="0" /><path
       style="fill:none;stroke:#000000;stroke-width:0.28346457;stroke-miterlimit:4;stroke-dasharray:none;stroke-opacity:1"
       d="m 700.03197,21.529115 0.50907,8.718071 -9.73596,-2.66e-4 -9.73595,-2.49e-4 0,-8.78462 0,-8.784604 9.22689,0.06672 9.22687,0.06688 0.50908,8.71807 z"
       id="path4818"
       inkscape:connector-curvature="0" /><path
       style="fill:none;stroke:#000000;stroke-width:0.28346457;stroke-miterlimit:4;stroke-dasharray:none;stroke-opacity:1"
       d="m 722.22191,13.346714 c 1.35286,1.009105 1.52904,1.651686 2.36551,8.627589 0.43644,3.639839 0.85868,6.991554 0.93832,7.44826 l 0.14472,0.830365 -9.51033,-0.06672 -9.51033,-0.06672 -0.51038,-8.727829 -0.51039,-8.727846 7.93733,0.07369 c 7.61123,0.0707 7.96683,0.09559 8.65548,0.609339 z"
       id="path4816"
       inkscape:connector-curvature="0" /><path
       style="fill:none;fill-opacity:1;stroke:#000000;stroke-width:0.28346457;stroke-miterlimit:4;stroke-dasharray:none;stroke-opacity:1"
       d="m 648.88195,37.564536 c -0.0734,0.664986 -0.3092,4.645259 -0.52414,8.84508 -0.21491,4.199821 -0.45222,8.122838 -0.52733,8.717822 l -0.13659,1.081761 -10.11006,0 -10.11006,0 1.14361,-9.926841 1.14363,-9.926858 9.62714,0 9.62715,0 -0.13343,1.209036 z"
       id="path4814"
       inkscape:connector-curvature="0" /><path
       style="fill:none;fill-opacity:1;stroke:#000000;stroke-width:0.28346457;stroke-miterlimit:4;stroke-dasharray:none;stroke-opacity:1"
       d="m 674.9603,46.282358 0,9.926841 -10.57135,0 -10.57136,0 0.12845,-1.336311 c 0.11352,-1.180475 0.28491,-4.219919 0.78587,-13.935759 0.0759,-1.469943 0.20116,-3.102144 0.27862,-3.627126 l 0.14073,-0.954503 9.90449,0 9.90447,0 0,9.926858 z"
       id="path4812"
       inkscape:connector-curvature="0" /><path
       style="fill:none;fill-opacity:1;stroke:#000000;stroke-width:0.28346457;stroke-miterlimit:4;stroke-dasharray:none;stroke-opacity:1"
       d="m 700.92406,36.800937 c 7.6e-4,0.24499 0.22834,4.225279 0.50593,8.84508 0.27758,4.6198 0.50611,8.886437 0.50783,9.481421 l 0.003,1.081761 -10.43592,0 -10.43593,0 0,-9.926841 0,-9.926858 9.92686,0 c 9.284,0 9.92693,0.02888 9.92807,0.445437 z"
       id="path4810"
       inkscape:connector-curvature="0" /><path
       style="fill:none;fill-opacity:1;stroke:#000000;stroke-width:0.28346457;stroke-miterlimit:4;stroke-dasharray:none;stroke-opacity:1"
       d="m 726.21357,36.800937 c 0.0694,0.24499 0.20182,1.189951 0.29439,2.09991 0.0926,0.90996 0.55793,5.033423 1.03417,9.163243 0.47624,4.129836 0.86691,7.651959 0.86817,7.826947 0.002,0.249239 -2.19504,0.318162 -10.14191,0.318162 l -10.1442,0 -0.17897,-3.245318 c -0.0984,-1.784918 -0.34181,-5.994282 -0.54082,-9.354146 -0.199,-3.359847 -0.36428,-6.366548 -0.36728,-6.681523 l -0.005,-0.572712 9.52789,0 c 8.85646,0 9.53678,0.03137 9.654,0.445437 z"
       id="path4808"
       inkscape:connector-curvature="0" /><path
       style="fill:none;fill-opacity:1;stroke:#000000;stroke-width:0.28346457;stroke-miterlimit:4;stroke-dasharray:none;stroke-opacity:1"
       d="m 647.359,64.29068 c -0.0807,1.084948 -0.32095,5.179783 -0.53411,9.099613 -0.21316,3.91983 -0.41827,7.527854 -0.45583,8.017835 l -0.0682,0.890874 -10.86919,0.06638 c -10.2312,0.06257 -10.86938,0.04 -10.87255,-0.381791 -0.005,-0.620691 2.06288,-18.954329 2.18188,-19.347356 0.075,-0.247745 2.38421,-0.318178 10.43046,-0.318178 l 10.33414,0 -0.14654,1.972652 z"
       id="path4806"
       inkscape:connector-curvature="0" /><path
       style="fill:none;fill-opacity:1;stroke:#000000;stroke-width:0.28346457;stroke-miterlimit:4;stroke-dasharray:none;stroke-opacity:1"
       d="m 674.9603,72.372144 0,10.054133 -11.33832,0 -11.33833,0 0.12713,-0.827245 c 0.0699,-0.45498 0.19369,-2.488075 0.27511,-4.517984 0.16281,-4.058639 0.54392,-10.364429 0.78848,-13.044901 l 0.15666,-1.71812 10.66462,0 10.66462,0 0,10.054117 z"
       id="path4804"
       inkscape:connector-curvature="0" /><path
       style="fill:none;fill-opacity:1;stroke:#000000;stroke-width:0.28346457;stroke-miterlimit:4;stroke-dasharray:none;stroke-opacity:1"
       d="m 702.54882,64.927021 c 0.54746,8.489693 0.91715,14.997257 0.91818,16.162944 l 10e-4,1.336312 -11.19953,0 -11.19952,0 0,-10.054133 0,-10.054117 10.65572,0 10.65572,0 0.16825,2.608994 z"
       id="path4802"
       inkscape:connector-curvature="0" /><path
       style="fill:none;fill-opacity:1;stroke:#000000;stroke-width:0.28346457;stroke-miterlimit:4;stroke-dasharray:none;stroke-opacity:1"
       d="m 729.17619,62.425951 c 0,0.05941 0.51542,4.490534 1.14539,9.847065 0.62998,5.35653 1.14541,9.83231 1.14541,9.946192 0,0.113849 -4.92524,0.207069 -10.945,0.207069 l -10.94497,0 -0.003,-0.827245 c -10e-4,-0.45498 -0.16546,-3.518937 -0.36466,-6.808799 -0.19919,-3.289861 -0.44093,-7.441953 -0.53718,-9.226888 l -0.17502,-3.245318 10.33927,0 c 5.68664,0 10.33931,0.04863 10.33931,0.107875 z"
       id="path4800"
       inkscape:connector-curvature="0" /><path
       style="fill:none;fill-opacity:1;stroke:#000000;stroke-width:0.28346457;stroke-miterlimit:4;stroke-dasharray:none;stroke-opacity:1"
       d="m 645.93957,88.726009 c -0.002,0.24499 -0.1087,2.048994 -0.23684,4.008917 -0.12812,1.959904 -0.31452,5.052504 -0.41407,6.872424 -0.0996,1.81992 -0.25068,4.51163 -0.33585,5.98157 l -0.15484,2.67261 -11.64496,0.0662 c -6.40472,0.0363 -11.64525,-0.0209 -11.64558,-0.12729 -10e-4,-0.33236 2.04408,-18.220406 2.18288,-19.092676 l 0.1316,-0.827229 11.06072,0 c 10.36577,0 11.0605,0.02805 11.05694,0.445437 z"
       id="path4798"
       inkscape:connector-curvature="0" /><path
       style="fill:none;fill-opacity:1;stroke:#000000;stroke-width:0.28346457;stroke-miterlimit:4;stroke-dasharray:none;stroke-opacity:1"
       d="m 674.9603,98.33469 0,10.05411 -11.96312,0 -11.96313,0 0.002,-1.20903 c 0.002,-1.35933 0.65808,-13.56917 0.90304,-16.799287 l 0.15932,-2.099911 11.43121,0 11.43122,0 0,10.054118 z"
       id="path4796"
       inkscape:connector-curvature="0" /><path
       style="fill:none;fill-opacity:1;stroke:#000000;stroke-width:0.28346457;stroke-miterlimit:4;stroke-dasharray:none;stroke-opacity:1"
       d="m 703.97869,89.235075 c 10e-4,0.902326 0.55502,10.871635 0.91885,16.544755 l 0.16732,2.60897 -11.99786,0 -11.99787,0 0,-10.05411 0,-10.054118 11.45406,0 11.45407,0 0.002,0.954503 z"
       id="path4794"
       inkscape:connector-curvature="0" /><path
       style="fill:none;fill-opacity:1;stroke:#000000;stroke-width:0.28346457;stroke-miterlimit:4;stroke-dasharray:none;stroke-opacity:1"
       d="m 732.24393,88.853267 c 0.007,0.314993 0.50667,4.753433 1.10964,9.863213 0.60297,5.10978 1.04837,9.37642 0.98979,9.48142 -0.0586,0.10505 -5.29574,0.1909 -11.63809,0.1909 l -11.53158,0 -0.16857,-2.60897 c -0.38235,-5.91758 -0.91132,-15.408243 -0.91503,-16.417497 l -0.003,-1.081761 11.07225,0 11.07226,0 0.0133,0.572695 z"
       id="path4792"
       inkscape:connector-curvature="0" /><path
       style="fill:none;fill-opacity:1;stroke:#000000;stroke-width:0.28346457;stroke-miterlimit:4;stroke-dasharray:none;stroke-opacity:1"
       d="m 644.41118,114.94307 c -0.003,0.38498 -0.22959,4.42254 -0.5041,8.97234 -0.27452,4.54981 -0.50135,8.75918 -0.50409,9.35416 l -0.005,1.08176 -12.34493,0 c -12.2008,0 -12.34493,-0.007 -12.34493,-0.51225 0,-0.28173 0.45816,-4.66129 1.01815,-9.73234 0.55996,-5.07104 1.01813,-9.36488 1.01813,-9.54186 0,-0.25473 2.46594,-0.32178 11.83587,-0.32178 l 11.83584,0 -0.005,0.69997 z"
       id="path4790"
       inkscape:connector-curvature="0" /><path
       style="fill:none;fill-opacity:1;stroke:#000000;stroke-width:0.28346457;stroke-miterlimit:4;stroke-dasharray:none;stroke-opacity:1"
       d="m 674.9603,124.29722 0,10.05411 -12.76108,0 -12.76107,0 0.17245,-3.49985 c 0.0949,-1.92492 0.27659,-5.21795 0.40388,-7.31786 0.12729,-2.09991 0.30525,-5.04934 0.39546,-6.55427 l 0.16397,-2.73625 12.19318,0 12.19316,0 0,10.05412 z"
       id="path4788"
       inkscape:connector-curvature="0" /><path
       style="fill:none;fill-opacity:1;stroke:#000000;stroke-width:0.28346457;stroke-miterlimit:4;stroke-dasharray:none;stroke-opacity:1"
       d="m 705.92947,123.53362 c 0.30374,5.03978 0.56146,9.5355 0.57269,9.99048 l 0.0204,0.82723 -12.72672,0 -12.72674,0 0,-10.05659 0,-10.05659 12.15403,0.0661 12.15404,0.066 0.55227,9.16326 z"
       id="path4786"
       inkscape:connector-curvature="0" /><path
       style="fill:none;fill-opacity:1;stroke:#000000;stroke-width:0.28346457;stroke-miterlimit:4;stroke-dasharray:none;stroke-opacity:1"
       d="m 735.1558,114.56126 c 0.0601,0.17501 0.22924,1.40632 0.3758,2.73625 0.4074,3.69695 0.97988,8.69205 1.40026,12.21766 0.20864,1.74993 0.38162,3.55395 0.38439,4.00893 l 0.005,0.82723 -12.34491,0 -12.34493,0 -0.0149,-0.57269 c -0.008,-0.315 -0.26673,-4.79114 -0.57376,-9.94703 -0.30704,-5.15585 -0.51004,-9.42248 -0.45113,-9.4814 0.0589,-0.0589 5.36048,-0.10704 11.78127,-0.10704 9.11133,0 11.69816,0.0699 11.7835,0.31816 z"
       id="path4784"
       inkscape:connector-curvature="0" /><path
       style="fill:none;fill-opacity:1;stroke:#000000;stroke-width:0.28346457;stroke-miterlimit:4;stroke-dasharray:none;stroke-opacity:1"
       d="m 642.88742,141.03287 c -7.7e-4,0.45498 -0.22924,4.77889 -0.50754,9.60868 -0.27832,4.8298 -0.50671,9.15371 -0.50756,9.60869 l -0.002,0.82724 -13.10854,0 -13.10853,0 0.001,-0.69997 c 10e-4,-0.71844 1.90637,-17.50213 2.18128,-19.21738 l 0.15302,-0.9545 12.44982,0 12.44981,0 -0.002,0.82724 z"
       id="path4782"
       inkscape:connector-curvature="0" /><path
       style="fill:none;fill-opacity:1;stroke:#000000;stroke-width:0.28346457;stroke-miterlimit:4;stroke-dasharray:none;stroke-opacity:1"
       d="m 674.9603,150.64155 0,10.43593 -13.59921,0 -13.59921,0 0.11535,-1.33631 c 0.17246,-1.99876 1.12059,-17.87584 1.12059,-18.76496 l 0,-0.77058 12.98127,0 12.98126,0 0,10.43592 z"
       id="path4780"
       inkscape:connector-curvature="0" /><path
       style="fill:none;fill-opacity:1;stroke:#000000;stroke-width:0.28346457;stroke-miterlimit:4;stroke-dasharray:none;stroke-opacity:1"
       d="m 706.88012,140.77834 c 0.11733,0.59648 1.18245,18.37258 1.17432,19.59917 l -0.005,0.69997 -13.49034,0 -13.49034,0 0,-10.43593 0,-10.43592 12.84915,0 12.84915,0 0.11269,0.57271 z"
       id="path4778"
       inkscape:connector-curvature="0" /><path
       style="fill:none;fill-opacity:1;stroke:#000000;stroke-width:0.28346457;stroke-miterlimit:4;stroke-dasharray:none;stroke-opacity:1"
       d="m 738.19229,141.16013 c 0.19889,1.24781 2.18342,18.98101 2.18342,19.51047 0,0.36753 -1.26536,0.40688 -13.08682,0.40688 l -13.08682,0 -0.14854,-1.84537 c -0.0816,-1.01497 -0.3204,-5.16706 -0.53039,-9.2269 -0.21001,-4.05982 -0.43387,-7.92556 -0.49748,-8.59055 l -0.11568,-1.20903 12.5651,0 12.56509,0 0.15219,0.9545 z"
       id="path4776"
       inkscape:connector-curvature="0" /><path
       style="fill:none;stroke:#000000;stroke-width:0.28346457;stroke-miterlimit:4;stroke-dasharray:none;stroke-opacity:1"
       d="m 885.40916,18.029015 c -2.19811,6.22973 -6.13067,17.39744 -8.73905,24.817121 -2.60837,7.419681 -6.23368,17.72833 -8.05622,22.908113 -1.82258,5.179784 -3.74884,10.677729 -4.28063,12.217657 -0.5318,1.539944 -1.61869,4.632546 -2.41534,6.872444 -0.79662,2.239898 -2.16976,6.134286 -3.05139,8.654176 -2.08151,5.949374 -9.53566,27.145794 -12.1289,34.489444 -1.1123,3.14986 -2.27341,6.43944 -2.58022,7.31018 -0.30681,0.87075 -0.62963,1.50071 -0.71741,1.39994 -0.0878,-0.10074 -0.53462,-1.09953 -0.99304,-2.21948 -0.45841,-1.11997 -2.60854,-6.21702 -4.77807,-11.3268 -2.16952,-5.10978 -4.37178,-10.32138 -4.8939,-11.58133 -0.8538,-2.06028 -5.87139,-13.95437 -12.34832,-29.271478 -1.30236,-3.079872 -4.28084,-10.124118 -6.61889,-15.653878 -2.33808,-5.52976 -4.45758,-10.512283 -4.71002,-11.072266 -0.25244,-0.559966 -0.88163,-2.048994 -1.39818,-3.308947 -0.51653,-1.259936 -1.60015,-3.837099 -2.40803,-5.72702 -0.8079,-1.889921 -2.64318,-6.242459 -4.07846,-9.672325 -1.43527,-3.429849 -3.5589,-8.469628 -4.71919,-11.199524 -1.16029,-2.729879 -3.33424,-7.884204 -4.831,-11.454057 -2.6715,-6.371609 -3.21199,-7.501898 -3.0217,-6.319017 0.0524,0.325598 0.55482,6.548109 1.11653,13.827802 0.5617,7.279678 1.30547,16.84383 1.65281,21.253624 0.34734,4.409827 1.15065,14.661204 1.78515,22.780855 1.81705,23.252913 3.08708,39.329871 3.67962,46.579841 0.1487,1.81992 0.50156,6.40155 0.78405,10.18138 0.28248,3.77984 0.85393,11.16771 1.26989,16.41749 0.41596,5.24977 0.87169,11.03408 1.01272,12.85401 0.14107,1.81992 0.94209,12.06733 1.78012,22.77202 0.838,10.70468 1.52367,19.66681 1.52367,19.91582 0,0.43233 2.11319,0.45276 46.86211,0.45304 l 46.86212,2.6e-4 -0.15882,-2.73504 c -0.0875,-1.50426 -0.33041,-7.20212 -0.54009,-12.66188 -0.37684,-9.81341 -0.78222,-19.98376 -1.51667,-38.05293 -0.68744,-16.91217 -0.89538,-22.14765 -1.41033,-35.50759 -1.27041,-32.961189 -1.37025,-35.477544 -1.77289,-44.670825 -0.13791,-3.149874 -0.36657,-8.99144 -0.5081,-12.981272 -0.14157,-3.989832 -0.31417,-8.399626 -0.38369,-9.799567 -0.0695,-1.39994 -0.30427,-7.18425 -0.52169,-12.854014 -0.21743,-5.669747 -0.47556,-12.255843 -0.57361,-14.635729 l -0.17831,-4.327096 -3.99657,11.326798 z"
       id="path4774"
       inkscape:connector-curvature="0" /><path
       style="fill:none;stroke:#000000;stroke-width:0.28346457;stroke-miterlimit:4;stroke-dasharray:none;stroke-opacity:1"
       d="m 803.14474,202.2484 c -0.33406,2.3727 -5.24637,38.25586 -6.26341,45.7526 -0.56977,4.19982 -1.48619,10.90045 -2.03648,14.89028 -0.55027,3.98983 -1.17986,8.62873 -1.39907,10.30865 -0.61701,4.72867 -0.41336,4.30758 -2.36628,4.89269 -0.93824,0.28112 -3.53854,1.10763 -5.77844,1.83673 -2.23989,0.72909 -6.33473,2.06176 -9.09961,2.96149 -2.76488,0.89974 -7.28923,2.37205 -10.05411,3.27182 -9.09723,2.96047 -44.14337,14.3335 -48.17068,15.63217 -4.48854,1.44739 -12.98958,4.20917 -14.89028,4.83749 -1.18953,0.39325 4.23828,0.4249 83.09245,0.48474 46.40082,0.0352 84.44349,-0.0221 84.53927,-0.12729 0.0957,-0.10522 3.40583,-13.36345 7.35567,-29.46276 3.94981,-16.09932 8.32295,-33.91038 9.71806,-39.58014 1.39509,-5.66975 3.20798,-13.05763 4.02862,-16.41748 2.93613,-12.02124 4.86804,-19.85889 4.9722,-20.17188 0.0845,-0.25375 -9.3657,-0.31816 -46.68593,-0.31816 l -46.79177,0 -0.17021,1.20904 z"
       id="path4772"
       inkscape:connector-curvature="0" /><path
       style="fill:none;stroke:#000000;stroke-width:0.28346457;stroke-miterlimit:4;stroke-dasharray:none;stroke-opacity:1"
       d="m 714.54044,202.66886 c -0.84162,0.3713 -2.69441,1.52221 -11.58133,7.19394 -13.5591,8.65358 -17.63068,10.59429 -24.18078,11.52572 -3.42598,0.48718 -10.89142,0.76735 -20.57885,0.77233 -10.42238,0.005 -10.69877,0.0415 -11.56734,1.51185 -0.49467,0.83743 -0.56443,2.10129 -0.15782,2.86092 0.15201,0.28401 1.19375,1.60749 2.31497,2.94106 7.40717,8.8099 12.11548,19.85262 13.59671,31.8894 0.34182,2.77764 0.39631,4.83382 0.28434,10.7286 -0.15169,7.98738 -0.15485,7.96771 1.34786,8.74475 1.37428,0.71066 2.01831,0.49362 6.51126,-2.19444 14.5993,-8.73448 23.22082,-12.65 31.29778,-14.21409 6.03808,-1.16926 9.40935,-1.21808 35.11232,-0.50852 10.46463,0.28889 11.71088,0.24944 12.70541,-0.4022 1.19249,-0.78136 1.52308,-2.71202 0.6965,-4.06745 -0.25759,-0.42237 -3.89381,-4.08555 -8.08052,-8.14038 -14.26351,-13.81425 -16.58433,-16.34106 -19.18718,-20.89029 -3.0891,-5.39903 -4.28166,-10.75882 -4.4947,-20.20086 -0.14273,-6.32635 -0.25045,-6.79779 -1.71137,-7.49104 -1.04341,-0.49513 -1.3232,-0.50225 -2.32719,-0.0593 z"
       id="path4770"
       inkscape:connector-curvature="0" /><path
       style="fill:none;stroke:#000000;stroke-width:0.28346457;stroke-miterlimit:4;stroke-dasharray:none;stroke-opacity:1"
       d="m 819.30606,312.66478 c -4.34064,0.76086 -9.51824,2.85083 -13.35326,5.39012 -2.28243,1.51128 -6.13095,5.20639 -7.97651,7.6586 -2.78592,3.70161 -4.94228,8.52447 -5.96179,13.33397 -0.64455,3.04064 -0.77341,9.11448 -0.25272,11.9128 0.53945,2.89916 1.5533,6.10896 2.71443,8.5937 4.48144,9.59001 13.23223,16.50522 23.78708,18.79748 3.0794,0.66875 10.45113,0.67275 13.48004,0.007 12.9145,-2.83736 22.78893,-12.12794 26.00918,-24.47133 0.69228,-2.65355 0.81245,-3.60558 0.91558,-7.25423 0.21598,-7.6418 -1.3661,-13.31348 -5.39166,-19.32855 -4.76387,-7.11829 -11.52954,-11.88828 -19.94727,-14.06347 -2.63995,-0.68216 -3.47775,-0.77915 -7.42982,-0.86009 -3.15228,-0.0646 -5.07959,0.0184 -6.59328,0.28371 z"
       id="path4764"
       inkscape:connector-curvature="0" /></g></svg>